# xmcd
#
# Track frame offsets: 
#        150
#        18931
#        32718
#        56905
#        73886
#        89762
#        107459
#        119226
#        131457
#        154717
#        174772
#        191125
#        210811
#        222418
#        250321
#        267277
#        283213
#        297060
#        312669
#        327701
#
# Disc length: 4706 seconds
#
# Revision: 0
# Processed by: cddbd v1.5.2PL0 Copyright (c) Steve Scherf et al.
# Submitted via: ExactAudioCopyFreeDBPlugin 1.0
#
DISCID=3d126014
DTITLE=Three Degrees - The Album [CD1)
DYEAR=2015
DGENRE=Soul
TTITLE0=Jump The Gun
TTITLE1=Long Lost Lover
TTITLE2=Red Light
TTITLE3=Together
TTITLE4=Take Good Care Of Yourself
TTITLE5=Giving Up, Giving In
TTITLE6=Year Of Decision
TTITLE7=When Will I See You Again
TTITLE8=Woman In Love
TTITLE9=Take Me Away
TTITLE10=TSOP (The Sound of Philadelphia)
TTITLE11=Dirty Old Man
TTITLE12=Yours
TTITLE13=Tie U Up
TTITLE14=Nigal Namida
TTITLE15=I'm Doin' Fine Now
TTITLE16=I'm Going To Miss You
TTITLE17=I'll Be Around
TTITLE18=Do Right Woman, Do Right Man
TTITLE19=Are You That Kind Of Guy?
EXTD=
EXTT0=
EXTT1=
EXTT2=
EXTT3=
EXTT4=
EXTT5=
EXTT6=
EXTT7=
EXTT8=
EXTT9=
EXTT10=
EXTT11=
EXTT12=
EXTT13=
EXTT14=
EXTT15=
EXTT16=
EXTT17=
EXTT18=
EXTT19=
PLAYORDER=
